<svg xmlns="http://www.w3.org/2000/svg" version="1.1" xmlns:xlink="http://www.w3.org/1999/xlink" xmlns:svgjs="http://svgjs.dev/svgjs" width="1000" height="1000" viewBox="0 0 1000 1000"><rect width="1000" height="1000" fill="#ffffff"></rect><g transform="matrix(0.7,0,0,0.7,149.57575757575756,282.1265587044535)"><svg viewBox="0 0 396 247" data-background-color="#50a060" preserveAspectRatio="xMidYMid meet" height="623" width="1000" xmlns="http://www.w3.org/2000/svg" xmlns:xlink="http://www.w3.org/1999/xlink"><g id="tight-bounds" transform="matrix(1,0,0,1,0.2400000000000091,-0.09999999999999432)"><svg viewBox="0 0 395.52 247.2" height="247.2" width="395.52"><g><svg></svg></g><g><svg viewBox="0 0 395.52 247.2" height="247.2" width="395.52"><g transform="matrix(1,0,0,1,132.56432832114936,37.08)"><svg viewBox="0 0 130.39134335770126 173.04" height="173.04" width="130.39134335770126"><g><svg viewBox="0 0 130.39134335770126 173.04" height="173.04" width="130.39134335770126"><g><svg viewBox="0 0 193.6261714488889 256.9577998410647" height="173.04" width="130.39134335770126"><g><svg viewBox="0 0 193.6261714488889 256.9577998410647" height="256.9577998410647" width="193.6261714488889"><g id="textblocktransform"><svg viewBox="0 0 193.6261714488889 256.9577998410647" height="256.9577998410647" width="193.6261714488889" id="textblock"><g><svg viewBox="0 0 193.6261714488889 171.9706128" height="171.9706128" width="193.6261714488889"><g transform="matrix(1,0,0,1,0,0)"><svg width="193.6261714488889" viewBox="3 -40.5 45.599998474121094 40.5" height="171.9706128" data-palette-color="#454545"><path d="M21.25 0L3 0 3-40.5 11.95-40.5 11.95-6.05 21.25-6.05 21.25 0ZM31.65 0L23.2 0 30.85-40.5 41.05-40.5 48.6 0 40.35 0 39-8.55 33.05-8.55 31.65 0ZM36-29.7L33.85-13.9 38.15-13.9 36-29.7Z" opacity="1" transform="matrix(1,0,0,1,0,0)" fill="#000000" class="undefined-text-0" data-fill-palette-color="primary" id="text-0"></path></svg></g></svg></g><g transform="matrix(1,0,0,1,0,212.5687471873728)"><svg viewBox="0 0 193.6261714488889 44.38905265369188" height="44.38905265369188" width="193.6261714488889"><g transform="matrix(1,0,0,1,0,0)"><svg width="193.6261714488889" viewBox="2.1500000953674316 -38.70000076293945 172.29000854492188 39.5" height="44.38905265369188" data-palette-color="#454545"><path d="M9.85 0.4L9.85 0.4Q7.65 0.4 5.58-0.38 3.5-1.15 2.15-2.7L2.15-2.7 4.1-5.4Q5.4-4.15 6.78-3.53 8.15-2.9 9.5-2.9L9.5-2.9Q10.5-2.9 11.35-3.15 12.2-3.4 12.73-3.98 13.25-4.55 13.25-5.55L13.25-5.55Q13.25-6.65 12.53-7.3 11.8-7.95 10.68-8.35 9.55-8.75 8.3-9.1L8.3-9.1Q5.75-9.95 4.4-11.45 3.05-12.95 3.05-15.1L3.05-15.1Q3.05-16.75 3.88-18.18 4.7-19.6 6.33-20.5 7.95-21.4 10.35-21.4L10.35-21.4Q12.5-21.4 14.2-20.88 15.9-20.35 17.4-19.15L17.4-19.15 15.55-16.25Q14.65-17.2 13.4-17.65 12.15-18.1 11.15-18.15L11.15-18.15Q10.3-18.2 9.53-17.9 8.75-17.6 8.25-17.05 7.75-16.5 7.75-15.75L7.75-15.75Q7.75-14.7 8.45-14.05 9.15-13.4 10.28-13.03 11.4-12.65 12.5-12.25L12.5-12.25Q14.05-11.8 15.25-11.05 16.45-10.3 17.18-9.2 17.9-8.1 17.9-6.45L17.9-6.45Q17.9-4.6 17.03-3.03 16.15-1.45 14.38-0.53 12.6 0.4 9.85 0.4ZM26.4-20.6L26.4-29.8 31.05-29.8 31.05-20.6 36.75-20.6 36.75-16.95 31.05-16.95 31.05 0 26.4 0 26.4-16.95 22.6-16.95 22.6-20.6 26.4-20.6ZM50.95 0.5L50.95 0.5Q48.05 0.5 45.67-0.75 43.3-2 41.92-4.42 40.55-6.85 40.55-10.35L40.55-10.35Q40.55-13.8 42-16.32 43.45-18.85 45.87-20.2 48.3-21.55 51.2-21.55L51.2-21.55Q54.09-21.55 56.09-20.23 58.09-18.9 59.15-17.1L59.15-17.1 58.84-16.3 59.3-20.7 63.59-20.7 63.59 0 58.95 0 58.95-5.4 59.45-4.2Q59.25-3.7 58.57-2.93 57.9-2.15 56.77-1.35 55.65-0.55 54.2-0.03 52.75 0.5 50.95 0.5ZM52.2-3.35L52.2-3.35Q53.95-3.35 55.34-4 56.75-4.65 57.67-5.83 58.59-7 58.95-8.65L58.95-8.65 58.95-12.7Q58.55-14.2 57.55-15.33 56.55-16.45 55.15-17.07 53.75-17.7 52.05-17.7L52.05-17.7Q50.2-17.7 48.65-16.8 47.09-15.9 46.17-14.3 45.25-12.7 45.25-10.55L45.25-10.55Q45.25-8.55 46.2-6.9 47.15-5.25 48.75-4.3 50.34-3.35 52.2-3.35ZM80.04 0.5L80.04 0.5Q77.19 0.5 74.87-0.88 72.54-2.25 71.19-4.78 69.84-7.3 69.84-10.6L69.84-10.6Q69.84-14.05 71.27-16.5 72.69-18.95 75.14-20.25 77.59-21.55 80.64-21.55L80.64-21.55Q83.09-21.55 85.32-20.5 87.54-19.45 88.79-17.6L88.79-17.6 88.59-15.95 88.59-38.7 93.19-38.7 93.19 0 88.54 0 88.54-5.15 89.04-3.85Q87.59-1.95 85.29-0.73 82.99 0.5 80.04 0.5ZM81.49-3.45L81.49-3.45Q83.34-3.45 84.79-4.13 86.24-4.8 87.19-6 88.14-7.2 88.54-8.85L88.54-8.85 88.54-12.75Q88.14-14.25 87.12-15.38 86.09-16.5 84.67-17.18 83.24-17.85 81.49-17.85L81.49-17.85Q79.59-17.85 78.02-16.93 76.44-16 75.49-14.4 74.54-12.8 74.54-10.7L74.54-10.7Q74.54-8.65 75.49-7.03 76.44-5.4 78.04-4.42 79.64-3.45 81.49-3.45ZM101.29 0L101.29-20.7 105.94-20.7 105.94 0 101.29 0ZM100.94-28.2L100.94-28.2Q100.94-29.3 101.82-30.05 102.69-30.8 103.74-30.8L103.74-30.8Q104.79-30.8 105.62-30.05 106.44-29.3 106.44-28.2L106.44-28.2Q106.44-27.05 105.62-26.33 104.79-25.6 103.74-25.6L103.74-25.6Q102.69-25.6 101.82-26.35 100.94-27.1 100.94-28.2ZM120.54 0.8L120.54 0.8Q117.74 0.8 115.91-0.93 114.09-2.65 113.99-5.4L113.99-5.4 113.99-20.7 118.64-20.7 118.64-7.05Q118.74-5.35 119.61-4.3 120.49-3.25 122.39-3.2L122.39-3.2Q124.14-3.2 125.51-4.23 126.89-5.25 127.74-7.03 128.59-8.8 128.59-11.05L128.59-11.05 128.59-20.7 133.24-20.7 133.24 0 128.99 0 128.59-5.1 128.84-4.2Q128.24-2.75 127.01-1.63 125.79-0.5 124.14 0.15 122.49 0.8 120.54 0.8ZM141.29-20.7L145.44-20.7 145.84-16.05 145.64-16.45Q146.79-18.8 148.91-20.15 151.04-21.5 153.79-21.5L153.79-21.5Q155.54-21.5 156.89-20.95 158.24-20.4 159.11-19.38 159.99-18.35 160.24-16.85L160.24-16.85 159.99-16.7Q161.19-18.95 163.31-20.23 165.44-21.5 167.79-21.5L167.79-21.5Q170.84-21.5 172.61-19.78 174.39-18.05 174.44-15.3L174.44-15.3 174.44 0 169.79 0 169.79-13.65Q169.74-15.25 169.01-16.32 168.29-17.4 166.49-17.5L166.49-17.5Q164.69-17.5 163.26-16.4 161.84-15.3 161.04-13.58 160.24-11.85 160.19-9.85L160.19-9.85 160.19 0 155.54 0 155.54-13.65Q155.49-15.25 154.71-16.32 153.94-17.4 152.14-17.5L152.14-17.5Q150.29-17.5 148.89-16.4 147.49-15.3 146.71-13.55 145.94-11.8 145.94-9.8L145.94-9.8 145.94 0 141.29 0 141.29-20.7Z" opacity="1" transform="matrix(1,0,0,1,0,0)" fill="#000000" class="undefined-text-1" data-fill-palette-color="secondary" id="text-1"></path></svg></g></svg></g></svg></g></svg></g></svg></g></svg></g></svg></g><g mask="url(#e16bc887-d514-453f-95c8-de9cfb05622d)"><g transform="matrix(4.224311987173286, 0, 0, 4.224311987173286, 1.0000000000000284, 22.096113034876012)"><svg xmlns="http://www.w3.org/2000/svg" xmlns:xlink="http://www.w3.org/1999/xlink" version="1.1" x="0" y="0" viewBox="3.0390000343322754 24.118000030517578 93.15599822998047 48.057003021240234" enable-background="new 0 0 100 100" xml:space="preserve" height="48.057003021240234" width="93.15599822998047" class="icon-none" data-fill-palette-color="accent" id="none"><g fill="#454545" data-fill-palette-color="accent"><path d="M49.982 31.719v-4.216l6.588-0.056 0.129-2.924-6.717 0.029v-0.434h-0.729v7.597c-2.717 0.073-4.886 1.042-5.126 2.272H55.02C54.781 32.77 52.657 31.81 49.982 31.719z" fill="#000000" data-fill-palette-color="accent"></path><path d="M55.715 38.138V35.16H43.518v2.979c2.014-0.146 4.046-0.227 6.098-0.227C51.667 37.912 53.7 37.992 55.715 38.138z" fill="#000000" data-fill-palette-color="accent"></path><path d="M49.616 39.084c-17.233 0-33.232 5.27-46.484 14.273h92.972C82.85 44.354 66.848 39.084 49.616 39.084zM14.563 52.396c-0.895 0-1.621-0.729-1.621-1.621 0-0.896 0.726-1.62 1.621-1.62s1.622 0.725 1.622 1.62C16.185 51.67 15.458 52.396 14.563 52.396zM18.939 52.396c-0.896 0-1.622-0.729-1.622-1.621 0-0.896 0.727-1.62 1.622-1.62 0.894 0 1.621 0.725 1.621 1.62C20.56 51.67 19.833 52.396 18.939 52.396zM23.314 52.396c-0.896 0-1.622-0.729-1.622-1.621 0-0.896 0.726-1.62 1.622-1.62 0.895 0 1.62 0.725 1.62 1.62C24.934 51.67 24.208 52.396 23.314 52.396zM27.688 52.396c-0.896 0-1.621-0.729-1.621-1.621 0-0.896 0.726-1.62 1.621-1.62s1.62 0.725 1.62 1.62C29.308 51.67 28.583 52.396 27.688 52.396zM32.063 52.396c-0.896 0-1.621-0.729-1.621-1.621 0-0.896 0.725-1.62 1.621-1.62s1.622 0.725 1.622 1.62C33.684 51.671 32.958 52.396 32.063 52.396zM36.438 52.396c-0.895 0-1.621-0.729-1.621-1.621 0-0.896 0.727-1.62 1.621-1.62s1.622 0.725 1.622 1.62C38.059 51.671 37.332 52.396 36.438 52.396zM40.813 52.396c-0.896 0-1.622-0.729-1.622-1.621 0-0.896 0.727-1.62 1.622-1.62 0.894 0 1.62 0.725 1.62 1.62C42.434 51.671 41.707 52.396 40.813 52.396zM45.188 52.396c-0.896 0-1.623-0.729-1.623-1.621 0-0.896 0.727-1.62 1.623-1.62 0.895 0 1.62 0.725 1.62 1.62C46.808 51.67 46.083 52.396 45.188 52.396zM49.564 52.396c-0.897 0-1.624-0.729-1.624-1.621 0-0.896 0.727-1.62 1.624-1.62 0.894 0 1.62 0.725 1.62 1.62C51.184 51.67 50.458 52.396 49.564 52.396zM53.938 52.396c-0.896 0-1.621-0.729-1.621-1.621 0-0.896 0.728-1.62 1.621-1.62 0.896 0 1.621 0.725 1.621 1.62C55.559 51.67 54.832 52.396 53.938 52.396zM58.313 52.396c-0.896 0-1.621-0.729-1.621-1.621 0-0.896 0.728-1.62 1.621-1.62 0.896 0 1.621 0.725 1.621 1.62C59.934 51.67 59.206 52.396 58.313 52.396zM62.688 52.396c-0.896 0-1.621-0.729-1.621-1.621 0-0.896 0.729-1.62 1.621-1.62 0.896 0 1.621 0.725 1.621 1.62C64.309 51.67 63.581 52.396 62.688 52.396zM67.063 52.396c-0.896 0-1.621-0.729-1.621-1.621 0-0.896 0.729-1.62 1.621-1.62 0.896 0 1.621 0.725 1.621 1.62C68.684 51.67 67.956 52.396 67.063 52.396zM71.438 52.396c-0.896 0-1.623-0.729-1.623-1.621 0-0.896 0.729-1.62 1.623-1.62 0.896 0 1.619 0.725 1.619 1.62C73.057 51.67 72.332 52.396 71.438 52.396zM75.813 52.396c-0.896 0-1.621-0.729-1.621-1.621 0-0.896 0.728-1.62 1.621-1.62 0.896 0 1.619 0.725 1.619 1.62C77.432 51.67 76.707 52.396 75.813 52.396zM80.188 52.396c-0.896 0-1.621-0.729-1.621-1.621 0-0.896 0.728-1.62 1.621-1.62 0.896 0 1.621 0.725 1.621 1.62C81.809 51.67 81.081 52.396 80.188 52.396zM84.563 52.396c-0.896 0-1.621-0.729-1.621-1.621 0-0.896 0.729-1.62 1.621-1.62 0.896 0 1.621 0.725 1.621 1.62C86.184 51.67 85.456 52.396 84.563 52.396z" fill="#000000" data-fill-palette-color="accent"></path><rect x="13.731" y="70.367" width="71.772" height="1.808" fill="#000000" data-fill-palette-color="accent"></rect><rect x="3.039" y="54.613" width="93.156" height="2.068" fill="#000000" data-fill-palette-color="accent"></rect><path d="M93.045 58.386H6.188l7.542 10.81h71.772L93.045 58.386zM85.688 59.518h5.217l-5.217 7.478V59.518zM13.179 66.992l-5.216-7.477h5.216V66.992zM15.733 68.294h-1.797v-2.321h1.797V68.294zM15.733 65.674h-1.797v-2.533h1.797V65.674zM15.733 62.842h-1.797v-3.283h1.797V62.842zM17.957 68.294h-1.798v-2.321h1.798V68.294zM17.957 65.674h-1.798v-2.533h1.798V65.674zM17.957 62.842h-1.798v-3.283h1.798V62.842zM20.181 68.294h-1.798v-2.321h1.798V68.294zM20.181 65.674h-1.798v-2.533h1.798V65.674zM20.181 62.842h-1.798v-3.283h1.798V62.842zM22.406 68.294h-1.799v-2.321h1.799V68.294zM22.406 65.674h-1.799v-2.533h1.799V65.674zM22.406 62.842h-1.799v-3.283h1.799V62.842zM24.63 68.294h-1.798v-2.321h1.798V68.294zM24.63 65.674h-1.798v-2.533h1.798V65.674zM24.63 62.842h-1.798v-3.283h1.798V62.842zM26.854 68.294h-1.798v-2.321h1.798V68.294zM26.854 65.674h-1.798v-2.533h1.798V65.674zM26.854 62.842h-1.798v-3.283h1.798V62.842zM29.078 68.294H27.28v-2.321h1.798V68.294zM29.078 65.674H27.28v-2.533h1.798V65.674zM29.078 62.842H27.28v-3.283h1.798V62.842zM31.302 68.294h-1.798v-2.321h1.798V68.294zM31.302 65.674h-1.798v-2.533h1.798V65.674zM31.302 62.842h-1.798v-3.283h1.798V62.842zM33.526 68.294h-1.799v-2.321h1.799V68.294zM33.526 65.674h-1.799v-2.533h1.799V65.674zM33.526 62.842h-1.799v-3.283h1.799V62.842zM35.749 68.294h-1.797v-2.321h1.797V68.294zM35.749 65.674h-1.797v-2.533h1.797V65.674zM35.749 62.842h-1.797v-3.283h1.797V62.842zM37.973 68.294h-1.798v-2.321h1.798V68.294zM37.973 65.674h-1.798v-2.533h1.798V65.674zM37.973 62.842h-1.798v-3.283h1.798V62.842zM40.198 68.294h-1.799v-2.321h1.799V68.294zM40.198 65.674h-1.799v-2.533h1.799V65.674zM40.198 62.842h-1.799v-3.283h1.799V62.842zM42.422 68.294h-1.798v-2.321h1.798V68.294zM42.422 65.674h-1.798v-2.533h1.798V65.674zM42.422 62.842h-1.798v-3.283h1.798V62.842zM44.646 68.294h-1.798v-2.321h1.798V68.294zM44.646 65.674h-1.798v-2.533h1.798V65.674zM44.646 62.842h-1.798v-3.283h1.798V62.842zM46.87 68.294h-1.797v-2.321h1.797V68.294zM46.87 65.674h-1.797v-2.533h1.797V65.674zM46.87 62.842h-1.797v-3.283h1.797V62.842zM49.094 68.294h-1.798v-2.321h1.798V68.294zM49.094 65.674h-1.798v-2.533h1.798V65.674zM49.094 62.842h-1.798v-3.283h1.798V62.842zM51.318 68.294h-1.797v-2.321h1.797V68.294zM51.318 65.674h-1.797v-2.533h1.797V65.674zM51.318 62.842h-1.797v-3.283h1.797V62.842zM53.543 68.294h-1.799v-2.321h1.799V68.294zM53.543 65.674h-1.799v-2.533h1.799V65.674zM53.543 62.842h-1.799v-3.283h1.799V62.842zM55.768 68.294h-1.799v-2.321h1.799V68.294zM55.768 65.674h-1.799v-2.533h1.799V65.674zM55.768 62.842h-1.799v-3.283h1.799V62.842zM57.99 68.294h-1.799v-2.321h1.799V68.294zM57.99 65.674h-1.799v-2.533h1.799V65.674zM57.99 62.842h-1.799v-3.283h1.799V62.842zM60.215 68.294h-1.799v-2.321h1.799V68.294zM60.215 65.674h-1.799v-2.533h1.799V65.674zM60.215 62.842h-1.799v-3.283h1.799V62.842zM62.439 68.294h-1.799v-2.321h1.799V68.294zM62.439 65.674h-1.799v-2.533h1.799V65.674zM62.439 62.842h-1.799v-3.283h1.799V62.842zM64.663 68.294h-1.798v-2.321h1.798V68.294zM64.663 65.674h-1.798v-2.533h1.798V65.674zM64.663 62.842h-1.798v-3.283h1.798V62.842zM66.887 68.294h-1.798v-2.321h1.798V68.294zM66.887 65.674h-1.798v-2.533h1.798V65.674zM66.887 62.842h-1.798v-3.283h1.798V62.842zM69.111 68.294h-1.799v-2.321h1.799V68.294zM69.111 65.674h-1.799v-2.533h1.799V65.674zM69.111 62.842h-1.799v-3.283h1.799V62.842zM71.335 68.294h-1.798v-2.321h1.798V68.294zM71.335 65.674h-1.798v-2.533h1.798V65.674zM71.335 62.842h-1.798v-3.283h1.798V62.842zM73.561 68.294h-1.799v-2.321h1.799V68.294zM73.561 65.674h-1.799v-2.533h1.799V65.674zM73.561 62.842h-1.799v-3.283h1.799V62.842zM75.784 68.294h-1.8v-2.321h1.8V68.294zM75.784 65.674h-1.8v-2.533h1.8V65.674zM75.784 62.842h-1.8v-3.283h1.8V62.842zM78.007 68.294H76.21v-2.321h1.797V68.294zM78.007 65.674H76.21v-2.533h1.797V65.674zM78.007 62.842H76.21v-3.283h1.797V62.842zM80.23 68.294h-1.797v-2.321h1.797V68.294zM80.23 65.674h-1.797v-2.533h1.797V65.674zM80.23 62.842h-1.797v-3.283h1.797V62.842zM82.455 68.294h-1.798v-2.321h1.798V68.294zM82.455 65.674h-1.798v-2.533h1.798V65.674zM82.455 62.842h-1.798v-3.283h1.798V62.842zM84.68 68.294h-1.798v-2.321h1.798V68.294zM84.68 65.674h-1.798v-2.533h1.798V65.674zM84.68 62.842h-1.798v-3.283h1.798V62.842z" fill="#000000" data-fill-palette-color="accent"></path><polygon points="88.534,66.229 92.734,72.175 94.232,72.175 89.292,65.143  " fill="#000000" data-fill-palette-color="accent"></polygon><polygon points="4.972,72.175 6.471,72.175 10.67,66.229 9.913,65.143  " fill="#000000" data-fill-palette-color="accent"></polygon></g></svg></g></g></svg></g><defs><mask id="e16bc887-d514-453f-95c8-de9cfb05622d"><rect width="640" height="400" fill="white"></rect><rect width="143.4304776934714" height="227.71902650735805" fill="black" y="9.740486746320968" x="126.04476115326429" id="transform-me"></rect></mask></defs></svg><rect width="395.52" height="247.2" fill="none" stroke="none" visibility="hidden"></rect></g></svg></g></svg>